# xmcd CD database file
#
# Track frame offsets:
#	150
#	36126
#	88500
#	142930
#	224546
#	267763
#
# Disc length: 4449 seconds
#
# Revision: 0
# Processed by: cddbd v1.5.2PL0 Copyright (c) Steve Scherf et al.
# Submitted via: CDex 1.70beta3
#
DISCID=4e115f06
DTITLE=Elvin Jones Tribute Band - Elvin Jones Tribute Band
DYEAR=2007
DGENRE=Jazz
TTITLE0=In the Truth
TTITLE1=For All the Other Time
TTITLE2=On the Mountain
TTITLE3=Gettin' On Way
TTITLE4=Everything Happen to Me
TTITLE5=Mini Modes
EXTD=YEAR: 2007
EXTT0=
EXTT1=
EXTT2=
EXTT3=
EXTT4=
EXTT5=
PLAYORDER=
